<svg xmlns="http://www.w3.org/2000/svg" xmlns:xlink="http://www.w3.org/1999/xlink" transform="scale(1,1)" width="368" height="496">
    <defs>
    <pattern id="VerticalStripe"
      x="5" y="0" width="5" height="10"
      patternUnits="userSpaceOnUse" >
      <line x1="0" y1="0" x2="0" y2="10" stroke="black" />
    </pattern>
    <g id="ster">
      <line x1="0" y1="-5" x2="0" y2="5" style="stroke:black" />
      <line x1="-4.33" y1="-2.5" x2="4.33" y2="2.5" style="stroke:black" />
      <line x1="-4.66" y1="2.5" x2="4.33" y2="-2.5" style="stroke:black" />
    </g>
    <g id="sinus">
      <path d="M0,0 C2,-5 8,-5 10,0 S18,5 20,0" style="stroke:black;fill:none" />
    </g>
    <g id="lamp">
    <line x1="-10.61" y1="-10.61" x2="10.61" y2="10.61" stroke="black" stroke-width="2" />
      <line x1="-10.61" y1="10.61" x2="10.61" y2="-10.61" stroke="black" stroke-width="2" />
    </g>
    <g id="schakelaar_enkel">
      <line x1="0" y1="0" x2="10" y2="-20" stroke="black" />
      <line x1="10" y1="-20" x2="15" y2="-17.5" stroke="black" />
      <circle cx="0" cy="0" r="5" fill="white" stroke="black" />
    </g>
    <g id="schakelaar_dubbel">
      <line x1="0" y1="0" x2="10" y2="-20" stroke="black" />
      <line x1="10" y1="-20" x2="15" y2="-17.5" stroke="black" />
      <line x1="8" y1="-16" x2="13" y2="-13.5" stroke="black" />
      <circle cx="0" cy="0" r="5" fill="white" stroke="black" />
    </g>
    <g id="schakelaar_wissel_enkel">
      <line x1="0" y1="0" x2="10" y2="-20" stroke="black" />
      <line x1="10" y1="-20" x2="15" y2="-17.5" stroke="black" />
      <line x1="0" y1="0" x2="-10" y2="20" stroke="black" />
      <line x1="-10" y1="20" x2="-15" y2="17.5" stroke="black" />
      <circle cx="0" cy="0" r="5" fill="white" stroke="black" />
    </g>
    <g id="schakelaar_rolluik">
      <line x1="0" y1="0" x2="10" y2="-20" stroke="black" />
      <line x1="10" y1="-20" x2="15" y2="-17.5" stroke="black" />
      <line x1="0" y1="0" x2="-10" y2="-20" stroke="black" />
      <line x1="-10" y1="-20" x2="-15" y2="-17.5" stroke="black" />
      <rect x="-8" y="-8" width="16" height="16" fill="white" stroke="black" />
      <text x="0" y="6" style="text-anchor:middle" font-family="Arial, Helvetica, sans-serif" font-weight="bold" font-size="16">S</text>
    </g>
    <g id="schakelaar_enkel_dim">
      <line x1="0" y1="0" x2="10" y2="-20" stroke="black" />
      <line x1="10" y1="-20" x2="15" y2="-17.5" stroke="black" />
      <circle cx="0" cy="0" r="5" fill="white" stroke="black" />
      <polygon points="-1,-8 11,-8 11,-15" fill="black" stroke="black" />
    </g>
    <g id="schakelaar_kruis_enkel">
      <line x1="0" y1="0" x2="10" y2="-20" stroke="black" />
      <line x1="10" y1="-20" x2="15" y2="-17.5" stroke="black" />
      <line x1="0" y1="0" x2="-10" y2="20" stroke="black" />
      <line x1="-10" y1="20" x2="-15" y2="17.5" stroke="black" />
      <line x1="0" y1="0" x2="-10" y2="-20" stroke="black" />
      <line x1="-10" y1="-20" x2="-15" y2="-17.5" stroke="black" />
      <line x1="0" y1="0" x2="10" y2="20" stroke="black" />
      <line x1="10" y1="20" x2="15" y2="17.5" stroke="black" />
      <circle cx="0" cy="0" r="5" fill="white" stroke="black" />
    </g>
    <g id="schakelaar_dubbelaansteking">
      <line x1="0" y1="0" x2="-10" y2="-20" stroke="black" />
      <line x1="-10" y1="-20" x2="-15" y2="-17.5" stroke="black" />
      <line x1="0" y1="0" x2="10" y2="-20" stroke="black" />
      <line x1="10" y1="-20" x2="15" y2="-17.5" stroke="black" />
      <circle cx="0" cy="0" r="5" fill="white" stroke="black" />
    </g>
    <g id="schakelaar_wissel_dubbel">
      <line x1="0" y1="0" x2="10" y2="-20" stroke="black" />
      <line x1="10" y1="-20" x2="15" y2="-17.5" stroke="black" />
      <line x1="8" y1="-16" x2="13" y2="-13.5" stroke="black" />
      <line x1="0" y1="0" x2="-10" y2="20" stroke="black" />
      <line x1="-10" y1="20" x2="-15" y2="17.5" stroke="black" />
      <line x1="-8" y1="16" x2="-13" y2="13.5" stroke="black" />
      <circle cx="0" cy="0" r="5" fill="white" stroke="black" />
    </g>
    <g id="bewegingsschakelaar">
      <rect x="0" y="-13" width="10" height="26" fill="none" style="stroke:black" />
      <rect x="10" y="-13" width="30" height="26" fill="none" style="stroke:black" />
      <line x1="10" y1="13" x2="40" y2="-13"  stroke="black" />
      <line x1="15" y1="-5" x2="20" y2="-5"  stroke="black" />
      <line x1="20" y1="-10" x2="20" y2="-5"  stroke="black" />
      <line x1="20" y1="-10" x2="25" y2="-10"  stroke="black" />
      <text x="22" y="11" style="text-anchor:left" font-family="Arial, Helvetica, sans-serif" font-weight="bold" font-size="10">PIR</text>
    </g>
    <g id="stopcontact">
      <path d="M20 0 A15 15 0 0 1 35 -15" stroke="black" fill="white" stroke-width="2" />
      <path d="M20 0 A15 15 0 0 0 35 15" stroke="black" fill="white" stroke-width="2" />
      <line x1="0" y1="0" x2="20" y2="0" stroke="black" />
    </g>
    <g id="stopcontact_aarding">
      <line x1="20" y1="-15" x2="20" y2="15"  stroke="black" stroke-width="2" />
    </g>
    <g id="stopcontact_kinderveilig">
      <line x1="35" y1="-20" x2="35" y2="-15"  stroke="black" stroke-width="2" />
      <line x1="35" y1="20" x2="35" y2="15"  stroke="black" stroke-width="2" />
    </g>
    <g id="bel">
      <path d="M20 0 A15 15 0 0 1 0 15" stroke="black" fill="none" stroke-width="2" />
      <path d="M20 0 A15 15 0 0 0 0 -15" stroke="black" fill="none" stroke-width="2" />
      <line x1="0" y1="15" x2="0" y2="-15" stroke="black" stroke-width="2" />
    </g>
    <g id="boiler">
      <circle cx="20" cy="0" r="20" style="stroke:black;fill:url(#VerticalStripe)" />
    </g>
    <g id="boiler_accu">
      <circle cx="20" cy="0" r="20" style="stroke:black;fill:none" />
      <circle cx="20" cy="0" r="15" style="stroke:black;fill:url(#VerticalStripe)" />
    </g>
    <g id="motor">
      <circle cx="20" cy="0" r="20" style="stroke:black;fill:none" />
      <text x="20" y="6" style="text-anchor:middle" font-family="Arial, Helvetica, sans-serif" font-weight="bold" font-size="16">M</text>
    </g>
    <g id="vrije_tekst">
      <rect x="0" y="-20" width="40" height="40" fill="none" style="stroke:black" />
    </g>
    <g id="elektriciteitsmeter">
      <rect x="0" y="-20" width="40" height="40" fill="none" style="stroke:black" />
      <line x1="0" y1="-6" x2="40" y2="-6" stroke="black" stroke-width="1" />
      <text x="20" y="10" style="text-anchor:middle" font-family="Arial, Helvetica, sans-serif" font-weight="bold" font-size="12">kWh</text>
    </g>
    <g id="diepvriezer">
      <rect x="0" y="-20" width="40" height="40" fill="none" style="stroke:black" />
      <use xlink:href="#ster" x="10" y="0" />
      <use xlink:href="#ster" x="20" y="0" />
      <use xlink:href="#ster" x="30" y="0" />
    </g>
    <g id="drukknop">
      <circle cx="12" cy="0" r="12" style="stroke:black;fill:none" />
      <circle cx="12" cy="0" r="7" style="stroke:black;fill:none" />
    </g>
    <g id="teleruptor">
      <rect x="0" y="-13" width="40" height="26" fill="none" style="stroke:black" />
      <line x1="8" y1="6" x2="16" y2="6"  stroke="black" />
      <line x1="24" y1="6" x2="32" y2="6"  stroke="black" />
      <line x1="16" y1="-6" x2="16" y2="6"  stroke="black" />
      <line x1="24" y1="-6" x2="24" y2="6"  stroke="black" />
    </g>
    <g id="dimmer">
      <rect x="0" y="-13" width="40" height="26" fill="none" style="stroke:black" />
      <line x1="10" y1="5" x2="30" y2="6"  stroke="black" />
      <line x1="10" y1="5" x2="10" y2="-5"  stroke="black" />
      <line x1="10" y1="-5" x2="30" y2="5"  stroke="black" />
    </g>
    <g id="relais">
      <rect x="0" y="-13" width="40" height="26" fill="none" style="stroke:black" />
      <line x1="10" y1="-13" x2="30" y2="13"  stroke="black" />
    </g>
    <g id="minuterie">
      <rect x="0" y="-13" width="40" height="26" fill="none" style="stroke:black" />
      <text x="20" y="6" style="text-anchor:middle" font-family="Arial, Helvetica, sans-serif" font-size="16">t</text>
    </g>
    <g id="thermostaat">
      <rect x="0" y="-13" width="40" height="26" fill="none" style="stroke:black" />
      <circle cx="20" cy="0" r="8" style="stroke:black;fill:none" />
      <line x1="12" y1="0" x2="28" y2="0"  stroke="black" />
    </g>
    <g id="tijdschakelaar">
      <rect x="0" y="-13" width="40" height="26" fill="none" style="stroke:black" />
      <circle cx="11" cy="0" r="8" style="stroke:black;fill:none" />
      <line x1="10" y1="0"  x2="17" y2="0"  stroke="black" />
      <line x1="11" y1="-6" x2="11" y2="1"  stroke="black" />
      <line x1="21" y1="0"  x2="25" y2="0"  stroke="black" />
      <line x1="25" y1="0"  x2="31" y2="-5"  stroke="black" />
      <line x1="31" y1="0"  x2="36" y2="0"  stroke="black" />
    </g>
    <g id="droogkast">
      <rect x="0" y="-20" width="40" height="40" fill="none" style="stroke:black" />
      <circle cx="15" cy="-7.5" r="5" style="stroke:black;fill:none" />
      <circle cx="25" cy="-7.5" r="5" style="stroke:black;fill:none" />
      <circle cx="20" cy="7.5" r="3" style="stroke:black;fill:black" />
    </g>
    <g id="koelkast">
      <rect x="0" y="-20" width="40" height="40" fill="none" style="stroke:black" />
      <use xlink:href="#ster" x="20" y="0" />"
    </g>
    <g id="kookfornuis">
      <rect x="0" y="-20" width="40" height="40" fill="none" style="stroke:black" />
      <circle cx="10" cy="10" r="3" style="stroke:black;fill:black" />
      <circle cx="30" cy="10" r="3" style="stroke:black;fill:black" />
      <circle cx="30" cy="-10" r="3" style="stroke:black;fill:black" />
    </g>
    <g id="microgolf">
      <rect x="0" y="-20" width="40" height="40" fill="none" style="stroke:black" />
      <use xlink:href="#sinus" x="10" y="-10" />"
      <use xlink:href="#sinus" x="10" y="0" />"
      <use xlink:href="#sinus" x="10" y="10" />"
    </g>
    <g id="oven">
      <rect x="0" y="-20" width="40" height="40" fill="none" style="stroke:black" />
      <line x1="0" y1="-5" x2="40" y2="-5" stroke="black" />
      <circle cx="20" cy="7.5" r="3" style="stroke:black;fill:black" />
    </g>
    <g id="vaatwasmachine">
      <rect x="0" y="-20" width="40" height="40" fill="none" style="stroke:black" />
      <line x1="0" y1="-20" x2="40" y2="20" style="stroke:black;fill:none" />
      <line x1="40" y1="-20" x2="0" y2="20" style="stroke:black;fill:none" />
      <circle cx="20" cy="0" r="8" style="stroke:black;fill:white" />
    </g>
    <g id="ventilator">
      <rect x="0" y="-15" width="30" height="30" fill="none" style="stroke:black" />
      <circle cx="10" cy="0" r="5" style="stroke:black;fill:none" />
      <circle cx="20" cy="0" r="5" style="stroke:black;fill:none" />
    </g>
    <g id="leeg">
      <circle cx="5" cy="0" r="5" style="stroke:black;fill:none" />
    </g>
    <g id="transformator">
      <circle cx="8" cy="0" r="8" style="stroke:black;fill:none" />
      <circle cx="20" cy="0" r="8" style="stroke:black;fill:none" />
    </g>
    <g id="verwarmingstoestel">
      <rect x="0" y="-15" width="50" height="30" fill="url(#VerticalStripe)" style="stroke:black" />
    </g>
    <g id="verwarmingstoestel_accu">
      <rect x="0" y="-15" width="50" height="30" fill="none" style="stroke:black" />
      <rect x="5" y="-10" width="40" height="20" fill="url(#VerticalStripe)" style="stroke:black" />
    </g>
    <g id="verwarmingstoestel_accu_ventilator">
      <rect x="0" y="-15" width="70" height="30" fill="none" style="stroke:black" />
      <rect x="5" y="-10" width="35" height="20" fill="url(#VerticalStripe)" style="stroke:black" />
      <circle cx="50" cy="0" r="5" style="stroke:black;fill:none" />
      <circle cx="60" cy="0" r="5" style="stroke:black;fill:none" />
    </g>
    <g id="wasmachine">
      <rect x="0" y="-20" width="40" height="40" fill="none" style="stroke:black" />
      <circle cx="20" cy="0" r="3" style="stroke:black;fill:black" />
      <circle cx="20" cy="0" r="15" style="stroke:black;fill:none" />
    </g>
    <g transform="rotate(-20)" id="zekering_automatisch">
      <line x1="0" y1="-30" x2="0" y2="0"  stroke="black" />
      <rect x="-4" y="-30" width="4" height="10" style="fill:black" />
    </g>
    <g id="zekering_smelt">
      <rect x="-4" y="-30" width="8" height="30" style="stroke:black;fill:none" />
      <line x1="0" y1="-30" x2="0" y2="0" stroke="black" />
    </g>
    </defs>
    <svg x="0" y="0"><svg x="50" y="0"><svg x="0" y="0"><svg x="24" y="0"><use xlink:href="#stopcontact" x="1" y="25"></use><use xlink:href="#stopcontact_aarding" x="1" y="25"></use><use xlink:href="#stopcontact_kinderveilig" x="1" y="25"></use>
<line x1="1" x2="1" y1="25" y2="50" stroke="black" /><text x="10" y="20" style="text-anchor:middle" font-family="Arial, Helvetica, sans-serif" font-size="10">5</text></svg><svg x="24" y="50"><use xlink:href="#stopcontact" x="1" y="25"></use><use xlink:href="#stopcontact_aarding" x="1" y="25"></use><use xlink:href="#stopcontact_kinderveilig" x="1" y="25"></use>
<line x1="1" x2="1" y1="0" y2="50" stroke="black" /><text x="10" y="20" style="text-anchor:middle" font-family="Arial, Helvetica, sans-serif" font-size="10">4</text></svg><svg x="24" y="100"><use xlink:href="#stopcontact" x="1" y="25"></use><use xlink:href="#stopcontact_aarding" x="1" y="25"></use><use xlink:href="#stopcontact_kinderveilig" x="1" y="25"></use>
<line x1="1" x2="1" y1="0" y2="50" stroke="black" /><text x="10" y="20" style="text-anchor:middle" font-family="Arial, Helvetica, sans-serif" font-size="10">3</text></svg><svg x="24" y="150"><use xlink:href="#stopcontact" x="1" y="25"></use><use xlink:href="#stopcontact_aarding" x="1" y="25"></use><use xlink:href="#stopcontact_kinderveilig" x="1" y="25"></use>
<line x1="1" x2="1" y1="0" y2="50" stroke="black" /><text x="10" y="20" style="text-anchor:middle" font-family="Arial, Helvetica, sans-serif" font-size="10">2</text></svg><svg x="24" y="200"><use xlink:href="#stopcontact" x="1" y="25"></use><use xlink:href="#stopcontact_aarding" x="1" y="25"></use><use xlink:href="#stopcontact_kinderveilig" x="1" y="25"></use>
<line x1="1" x2="1" y1="0" y2="50" stroke="black" /><text x="10" y="20" style="text-anchor:middle" font-family="Arial, Helvetica, sans-serif" font-size="10">1</text></svg>
<line x1="25" x2="25" y1="250" y2="350" stroke="black" /><text x="40" y="330" transform="rotate(-90 40,330)" style="text-anchor:Left" font-family="Arial, Helvetica, sans-serif" font-size="10">VOB 3G2,5</text><use xlink:href="#zekering_automatisch" x="25" y="380" /><text x="40" y="370" transform="rotate(-90 40,370)" style="text-anchor:middle" font-family="Arial, Helvetica, sans-serif" font-size="10">2P - 20A</text><text x="19" y="383" style="text-anchor:end" font-family="Arial, Helvetica, sans-serif" font-weight="bold" font-size="12">A</text><line x1="25" x2="25" y1="380" y2="395" stroke="black" /></svg><svg x="65" y="100"><svg x="24" y="0"><path d="M1 25 L31 25" stroke="black" /><use xlink:href="#schakelaar_enkel" x="31" y="25" /><path d="M36 25 L66 25" stroke="black" /><use xlink:href="#lamp" x="66" y="25" />
<line x1="1" x2="1" y1="25" y2="50" stroke="black" /><text x="10" y="20" style="text-anchor:middle" font-family="Arial, Helvetica, sans-serif" font-size="10">3</text></svg><svg x="24" y="50"><path d="M1 25 L31 25" stroke="black" /><use xlink:href="#schakelaar_wissel_enkel" x="31" y="25" /><path d="M36 25 L66 25" stroke="black" /><use xlink:href="#schakelaar_wissel_enkel" x="66" y="25" /><path d="M71 25 L101 25" stroke="black" /><use xlink:href="#lamp" x="101" y="25" />
<line x1="1" x2="1" y1="0" y2="50" stroke="black" /><text x="10" y="20" style="text-anchor:middle" font-family="Arial, Helvetica, sans-serif" font-size="10">2</text></svg><svg x="24" y="100"><path d="M1 25 L31 25" stroke="black" /><use xlink:href="#schakelaar_dubbel" x="31" y="25" /><path d="M36 25 L66 25" stroke="black" /><use xlink:href="#lamp" x="66" y="25" />
<line x1="1" x2="1" y1="0" y2="50" stroke="black" /><text x="10" y="20" style="text-anchor:middle" font-family="Arial, Helvetica, sans-serif" font-size="10">1</text></svg>
<line x1="25" x2="25" y1="150" y2="250" stroke="black" /><text x="40" y="230" transform="rotate(-90 40,230)" style="text-anchor:Left" font-family="Arial, Helvetica, sans-serif" font-size="10">VOB 3G1,5</text><use xlink:href="#zekering_automatisch" x="25" y="280" /><text x="40" y="270" transform="rotate(-90 40,270)" style="text-anchor:middle" font-family="Arial, Helvetica, sans-serif" font-size="10">2P - 16A</text><text x="19" y="283" style="text-anchor:end" font-family="Arial, Helvetica, sans-serif" font-weight="bold" font-size="12">B</text><line x1="25" x2="25" y1="280" y2="295" stroke="black" /></svg><svg x="199" y="34"><svg x="0" y="0"><svg x="0" y="0"><svg x="24" y="0"><path d="M1 25 L31 25" stroke="black" /><use xlink:href="#schakelaar_dubbel" x="31" y="25" /><path d="M36 25 L66 25" stroke="black" /><use xlink:href="#lamp" x="66" y="25" />
<line x1="1" x2="1" y1="25" y2="50" stroke="black" /><text x="10" y="20" style="text-anchor:middle" font-family="Arial, Helvetica, sans-serif" font-size="10">3</text></svg><svg x="24" y="50"><use xlink:href="#stopcontact" x="1" y="25"></use><use xlink:href="#stopcontact_aarding" x="1" y="25"></use><use xlink:href="#stopcontact_kinderveilig" x="1" y="25"></use>
<line x1="1" x2="1" y1="0" y2="50" stroke="black" /><text x="10" y="20" style="text-anchor:middle" font-family="Arial, Helvetica, sans-serif" font-size="10">2</text></svg><svg x="24" y="100"><use xlink:href="#stopcontact" x="1" y="25"></use><use xlink:href="#stopcontact_aarding" x="1" y="25"></use><use xlink:href="#stopcontact_kinderveilig" x="1" y="25"></use>
<line x1="1" x2="1" y1="0" y2="50" stroke="black" /><text x="10" y="20" style="text-anchor:middle" font-family="Arial, Helvetica, sans-serif" font-size="10">1</text></svg>
<line x1="25" x2="25" y1="150" y2="250" stroke="black" /><text x="40" y="230" transform="rotate(-90 40,230)" style="text-anchor:Left" font-family="Arial, Helvetica, sans-serif" font-size="10">VOB 3G2,5</text><use xlink:href="#zekering_automatisch" x="25" y="280" /><text x="40" y="270" transform="rotate(-90 40,270)" style="text-anchor:middle" font-family="Arial, Helvetica, sans-serif" font-size="10">2P - 20A</text><text x="19" y="283" style="text-anchor:end" font-family="Arial, Helvetica, sans-serif" font-weight="bold" font-size="12">C</text><line x1="25" x2="25" y1="280" y2="295" stroke="black" /></svg>
<line x1="4" x2="103" y1="295" y2="295" stroke="black" stroke-width="3" /></svg>
<line x1="30" x2="30" y1="296" y2="316" stroke="black" /><use xlink:href="#zekering_automatisch" x="30" y="346" /><text x="55" y="336" transform="rotate(-90 55,336)" style="text-anchor:middle" font-family="Arial, Helvetica, sans-serif" font-size="10">2P - 40A</text><text x="45" y="336" transform="rotate(-90 45,336)" style="text-anchor:middle" font-family="Arial, Helvetica, sans-serif" font-size="10">Δ30mA</text><text x="24" y="349" style="text-anchor:end" font-family="Arial, Helvetica, sans-serif" font-weight="bold" font-size="12">Diff</text><line x1="30" x2="30" y1="346" y2="361" stroke="black" /></svg>
<line x1="4" x2="312" y1="395" y2="395" stroke="black" stroke-width="3" /><line x1="40" y1="395" x2="40" y2="405" stroke="black" /><line x1="40" y1="410" x2="40" y2="420" stroke="black" /><line x1="40" y1="425" x2="40" y2="435" stroke="black" /><line x1="35" y1="405" x2="45" y2="405" stroke="black" /><line x1="35" y1="410" x2="45" y2="410" stroke="black" /><line x1="35" y1="420" x2="45" y2="420" stroke="black" /><line x1="35" y1="425" x2="45" y2="425" stroke="black" /><line x1="30" y1="435" x2="50" y2="435" stroke="black" /><line x1="32.5" y1="438" x2="47.5" y2="438" stroke="black" /><line x1="35" y1="441" x2="45" y2="441" stroke="black" /></svg>
<line x1="150" x2="150" y1="396" y2="416" stroke="black" /><use xlink:href="#zekering_automatisch" x="150" y="446" /><text x="175" y="436" transform="rotate(-90 175,436)" style="text-anchor:middle" font-family="Arial, Helvetica, sans-serif" font-size="10">2P - 40A</text><text x="165" y="436" transform="rotate(-90 165,436)" style="text-anchor:middle" font-family="Arial, Helvetica, sans-serif" font-size="10">Δ300mA</text><line x1="1" y1="471" x2="21" y2="471" stroke="black"></line><line x1="60" y1="471" x2="150" y2="471" stroke="black"></line><line x1="150" y1="446" x2="150" y2="471" stroke="black"></line><use xlink:href="#elektriciteitsmeter" x="21" y="471"></use><text x="100" y="486" style="text-anchor:Middle" font-family="Arial, Helvetica, sans-serif" font-size="10">2x16</text></svg>
</svg>