<svg xmlns="http://www.w3.org/2000/svg" xmlns:xlink="http://www.w3.org/1999/xlink" transform="scale(1,1)" style="border:1px solid white" height="562" width="509" viewBox="0 0 509 562"><svg width="529" height="567"><defs>
    <pattern id="VerticalStripe" x="5" y="0" width="5" height="10" patternUnits="userSpaceOnUse">
      <line x1="0" y1="0" x2="0" y2="10" stroke="black"></line>
    </pattern>
    <g id="batterij">
      <rect x="1" y="-12" width="40" height="27" stroke="black" fill="none"></rect>
      <rect x="6" y="-15" width="10" height="3" stroke="black" fill="none"></rect>
      <rect x="26" y="-15" width="10" height="3" stroke="black" fill="none"></rect>
      <line x1="9" y1="-5" x2="13" y2="-5" stroke="black"></line>
      <line x1="11" y1="-7" x2="11" y2="-3" stroke="black"></line>
      <line x1="29" y1="-5" x2="33" y2="-5" stroke="black"></line>
    </g>
    <g id="deurslot">
      <line x1="1" y1="-15" x2="31" y2="-15" stroke="black"></line>
      <line x1="1" y1="15" x2="46" y2="15" stroke="black"></line>
      <line x1="1" y1="-15" x2="1" y2="15" stroke="black"></line>
      <line x1="31" y1="-15" x2="46" y2="15" stroke="black"></line>
      <path d="M 7 3 A 6 6 0 0 1 19 3 A 6 6 0 0 1 31 3" stroke="black" fill="none"></path>
    </g>
    <g id="ster">
      <line x1="0" y1="-5" x2="0" y2="5" style="stroke:black"></line>
      <line x1="-4.33" y1="-2.5" x2="4.33" y2="2.5" style="stroke:black"></line>
      <line x1="-4.66" y1="2.5" x2="4.33" y2="-2.5" style="stroke:black"></line>
    </g>
    <g id="EVlader">
      <rect x="0" y="-20" width="40" height="40" fill="none" style="stroke:black"></rect>
      <rect style="fill:black;stroke:black" width="18" height="6" x="12" y="-10"></rect>
      <rect style="fill:black;stroke:black" width="28" height="10" x="6" y="-4" ry="0"></rect>
      <circle cx="12" cy="6" r="4" style="stroke:black;fill:black"></circle>
      <circle cx="28" cy="6" r="4" style="stroke:black;fill:black"></circle>
      <line x1="20" y1="-7.2" x2="17" y2="-2" stroke="white"></line>
      <line x1="17" y1="-2" x2="23" y2="-2" stroke="white"></line>
      <line x1="23" y1="-2" x2="20" y2="3.2" stroke="white"></line>
      <line x1="20" y1="3.2" x2="20" y2="0.2" stroke="white"></line>
      <line x1="20" y1="3.2" x2="22.6" y2="1.7" stroke="white"></line>
    </g>
    <g id="lamp">
      <line x1="-10.61" y1="-10.61" x2="10.61" y2="10.61" stroke="black" stroke-width="2"></line>
      <line x1="-10.61" y1="10.61" x2="10.61" y2="-10.61" stroke="black" stroke-width="2"></line>
    </g>
    <g id="led">
      <line x1="0" y1="-7" x2="0" y2="7" stroke="black" stroke-width="2"></line>
      <line x1="0" y1="-7" x2="12" y2="0" stroke="black" stroke-width="2"></line>
      <line x1="0" y1="7" x2="12" y2="0" stroke="black" stroke-width="2"></line>
      <line x1="12" y1="-7" x2="12" y2="7" stroke="black" stroke-width="2"></line>
      <line x1="6" y1="-6" x2="7" y2="-11" stroke="black" stroke-width="1"></line>
      <line x1="7" y1="-11" x2="8.11" y2="-9.34" stroke="black" stroke-width="1"></line>
      <line x1="7" y1="-11" x2="5.34" y2="-9.9" stroke="black" stroke-width="1"></line>
      <line x1="9" y1="-6" x2="10" y2="-11" stroke="black" stroke-width="1"></line>
      <line x1="10" y1="-11" x2="11.11" y2="-9.34" stroke="black" stroke-width="1"></line>
      <line x1="10" y1="-11" x2="8.34" y2="-9.9" stroke="black" stroke-width="1"></line>
    </g>
    <g id="sinus">
      <path d="M0,0 C2,-5 8,-5 10,0 S18,5 20,0" style="stroke:black;fill:none"></path>
    </g>
    <g id="spot">
      <path d="M0 0 A10 10 0 0 1 10 -10" stroke="black" fill="white" stroke-width="1"></path>
      <path d="M0 0 A10 10 0 0 0 10 10" stroke="black" fill="white" stroke-width="1"></path>
      <circle cx="10" cy="0" r="6" style="stroke:black;fill:white"></circle>
      <line x1="5.76" x2="14.24" y1="-4.24" y2="4.24" stroke="black" stroke-width="1"></line>
      <line x1="5.76" x2="14.24" y1="4.24" y2="-4.24" stroke="black" stroke-width="1"></line>
    </g>
    <g id="noodlamp_decentraal">
      <rect x="-10.61" y="-10.61" width="21.22" height="21.22" fill="white" stroke="black"></rect>
      <circle cx="0" cy="0" r="5" style="stroke:black;fill:black"></circle>
      <line x1="-7" y1="-7" x2="7" y2="7" stroke="black" stroke-width="2"></line>
      <line x1="-7" y1="7" x2="7" y2="-7" stroke="black" stroke-width="2"></line>
    </g>
    <g id="signalisatielamp">
      <circle cx="0" cy="0" r="5" fill="white" stroke="black"></circle>
      <line x1="-3" y1="-3" x2="3" y2="3" stroke="black"></line>
      <line x1="-3" y1="3" x2="3" y2="-3" stroke="black"></line>
    </g>
    <g id="schakelaar_enkel">
      <line x1="0" y1="0" x2="10" y2="-20" stroke="black"></line>
      <line x1="10" y1="-20" x2="15" y2="-17.5" stroke="black"></line>
      <circle cx="0" cy="0" r="5" fill="white" stroke="black"></circle>
    </g>
    <g id="schakelaar_dubbel">
      <line x1="0" y1="0" x2="10" y2="-20" stroke="black"></line>
      <line x1="10" y1="-20" x2="15" y2="-17.5" stroke="black"></line>
      <line x1="8" y1="-16" x2="13" y2="-13.5" stroke="black"></line>
      <circle cx="0" cy="0" r="5" fill="white" stroke="black"></circle>
    </g>
    <g id="schakelaar_trippel">
      <line x1="0" y1="0" x2="10" y2="-20" stroke="black"></line>
      <line x1="10" y1="-20" x2="15" y2="-17.5" stroke="black"></line>
      <line x1="8" y1="-16" x2="13" y2="-13.5" stroke="black"></line>
      <line x1="6" y1="-12" x2="11" y2="-9.5" stroke="black"></line>
      <circle cx="0" cy="0" r="5" fill="white" stroke="black"></circle>
    </g>
    <g id="schakelaar_wissel_enkel">
      <line x1="0" y1="0" x2="10" y2="-20" stroke="black"></line>
      <line x1="10" y1="-20" x2="15" y2="-17.5" stroke="black"></line>
      <line x1="0" y1="0" x2="-10" y2="20" stroke="black"></line>
      <line x1="-10" y1="20" x2="-15" y2="17.5" stroke="black"></line>
      <circle cx="0" cy="0" r="5" fill="white" stroke="black"></circle>
    </g>
    <g id="schakelaar_rolluik">
      <line x1="0" y1="0" x2="10" y2="-20" stroke="black"></line>
      <line x1="10" y1="-20" x2="15" y2="-17.5" stroke="black"></line>
      <line x1="0" y1="0" x2="-10" y2="-20" stroke="black"></line>
      <line x1="-10" y1="-20" x2="-15" y2="-17.5" stroke="black"></line>
      <rect x="-8" y="-8" width="16" height="16" fill="white" stroke="black"></rect>
      <text x="0" y="6" style="text-anchor:middle" font-family="Arial, Helvetica, sans-serif" font-weight="bold" font-size="16">S</text>
    </g>
    <g id="schakelaar_enkel_dim">
      <line x1="0" y1="0" x2="10" y2="-20" stroke="black"></line>
      <line x1="10" y1="-20" x2="15" y2="-17.5" stroke="black"></line>
      <circle cx="0" cy="0" r="5" fill="white" stroke="black"></circle>
      <polygon points="-1,-8 11,-8 11,-15" fill="black" stroke="black"></polygon>
    </g>
    <g id="schakelaar_wissel_dim">
      <line x1="0" y1="0" x2="10" y2="-20" stroke="black"></line>
      <line x1="10" y1="-20" x2="15" y2="-17.5" stroke="black"></line>
      <line x1="0" y1="0" x2="-10" y2="20" stroke="black"></line>
      <line x1="-10" y1="20" x2="-15" y2="17.5" stroke="black"></line>
      <circle cx="0" cy="0" r="5" fill="white" stroke="black"></circle>
      <polygon points="-1,-8 11,-8 11,-15" fill="black" stroke="black"></polygon>
    </g>
    <g id="schakelaar_kruis_enkel">
      <line x1="0" y1="0" x2="10" y2="-20" stroke="black"></line>
      <line x1="10" y1="-20" x2="15" y2="-17.5" stroke="black"></line>
      <line x1="0" y1="0" x2="-10" y2="20" stroke="black"></line>
      <line x1="-10" y1="20" x2="-15" y2="17.5" stroke="black"></line>
      <line x1="0" y1="0" x2="-10" y2="-20" stroke="black"></line>
      <line x1="-10" y1="-20" x2="-15" y2="-17.5" stroke="black"></line>
      <line x1="0" y1="0" x2="10" y2="20" stroke="black"></line>
      <line x1="10" y1="20" x2="15" y2="17.5" stroke="black"></line>
      <circle cx="0" cy="0" r="5" fill="white" stroke="black"></circle>
    </g>
    <g id="schakelaar_dubbelaansteking">
      <line x1="0" y1="0" x2="-10" y2="-20" stroke="black"></line>
      <line x1="-10" y1="-20" x2="-15" y2="-17.5" stroke="black"></line>
      <line x1="0" y1="0" x2="10" y2="-20" stroke="black"></line>
      <line x1="10" y1="-20" x2="15" y2="-17.5" stroke="black"></line>
      <circle cx="0" cy="0" r="5" fill="white" stroke="black"></circle>
    </g>
    <g id="schakelaar_wissel_dubbel">
      <line x1="0" y1="0" x2="10" y2="-20" stroke="black"></line>
      <line x1="10" y1="-20" x2="15" y2="-17.5" stroke="black"></line>
      <line x1="8" y1="-16" x2="13" y2="-13.5" stroke="black"></line>
      <line x1="0" y1="0" x2="-10" y2="20" stroke="black"></line>
      <line x1="-10" y1="20" x2="-15" y2="17.5" stroke="black"></line>
      <line x1="-8" y1="16" x2="-13" y2="13.5" stroke="black"></line>
      <circle cx="0" cy="0" r="5" fill="white" stroke="black"></circle>
    </g>
    <g id="aansluitpunt">
      <circle cx="5" cy="0" r="5" style="stroke:black;fill:none"></circle>
    </g>
    <g id="aftakdoos">
      <circle cx="15" cy="0" r="15" style="stroke:black;fill:none"></circle>
      <circle cx="15" cy="0" r="7.5" style="stroke:black;fill:black"></circle>
    </g>
    <g id="bewegingsschakelaar">
      <rect x="0" y="-13" width="10" height="26" fill="none" style="stroke:black"></rect>
      <rect x="10" y="-13" width="30" height="26" fill="none" style="stroke:black"></rect>
      <line x1="10" y1="13" x2="40" y2="-13" stroke="black"></line>
      <line x1="15" y1="-5" x2="20" y2="-5" stroke="black"></line>
      <line x1="20" y1="-10" x2="20" y2="-5" stroke="black"></line>
      <line x1="20" y1="-10" x2="25" y2="-10" stroke="black"></line>
      <text x="22" y="11" style="text-anchor:start" font-family="Arial, Helvetica, sans-serif" font-weight="bold" font-size="10">PIR</text>
    </g>
    <g id="schakelaar">
      <line x1="0" y1="0" x2="5" y2="0" stroke="black"></line>
      <line x1="5" y1="0" x2="35" y2="-10" stroke="black"></line>
      <line x1="35" y1="0" x2="40" y2="0" stroke="black"></line>
    </g>
    <g id="schemerschakelaar">
      <line x1="0" y1="0" x2="5" y2="0" stroke="black"></line>
      <line x1="5" y1="0" x2="35" y2="-10" stroke="black"></line>
      <line x1="35" y1="0" x2="40" y2="0" stroke="black"></line>
      <use xlink:href="#arrow" xmlns:xlink="http://www.w3.org/1999/xlink" x="14" y="-17" transform="rotate(90 14 -17)"></use>
      <use xlink:href="#arrow" xmlns:xlink="http://www.w3.org/1999/xlink" x="18" y="-17" transform="rotate(90 18 -17)"></use>
    </g>
    <g id="stopcontact">
      <path d="M20 0 A15 15 0 0 1 35 -15" stroke="black" fill="white" stroke-width="2"></path>
      <path d="M20 0 A15 15 0 0 0 35 15" stroke="black" fill="white" stroke-width="2"></path>
      <line x1="0" y1="0" x2="20" y2="0" stroke="black"></line>
    </g>
    <g id="stoomoven">
      <rect x="0" y="-20" width="40" height="40" fill="none" style="stroke:black"></rect>
      <path d="M 6 -2 A 7 5 0 0 1 13 -7 A 7 5 0 0 1 27 -7 A 7 5 0 0 1 33 -2" stroke="black" fill="none"></path>
      <path d="M 6  5 A 7 5 0 0 1 13  0 A 7 5 0 0 1 27  0 A 7 5 0 0 1 33  5" stroke="black" fill="none"></path>
      <path d="M 6 12 A 7 5 0 0 1 13  7 A 7 5 0 0 1 27  7 A 7 5 0 0 1 33 12" stroke="black" fill="none"></path>
    </g>
    <g id="stopcontact_aarding">
      <line x1="20" y1="-15" x2="20" y2="15" stroke="black" stroke-width="2"></line>
    </g>
    <g id="stopcontact_kinderveilig">
      <line x1="35" y1="-20" x2="35" y2="-15" stroke="black" stroke-width="2"></line>
      <line x1="35" y1="20" x2="35" y2="15" stroke="black" stroke-width="2"></line>
    </g>
    <g id="bel">
      <path d="M20 0 A15 15 0 0 1 0 15" stroke="black" fill="none" stroke-width="2"></path>
      <path d="M20 0 A15 15 0 0 0 0 -15" stroke="black" fill="none" stroke-width="2"></path>
      <line x1="0" y1="15" x2="0" y2="-15" stroke="black" stroke-width="2"></line>
    </g>
    <g id="boiler">
      <circle cx="20" cy="0" r="20" style="stroke:black;fill:url(#VerticalStripe)"></circle>
    </g>
    <g id="boiler_accu">
      <circle cx="20" cy="0" r="20" style="stroke:black;fill:none"></circle>
      <circle cx="20" cy="0" r="15" style="stroke:black;fill:url(#VerticalStripe)"></circle>
    </g>
    <g id="motor">
      <circle cx="20" cy="0" r="20" style="stroke:black;fill:none"></circle>
      <text x="20" y="6" style="text-anchor:middle" font-family="Arial, Helvetica, sans-serif" font-weight="bold" font-size="16">M</text>
    </g>
    <g id="elektriciteitsmeter">
      <rect x="0" y="-20" width="40" height="40" fill="none" style="stroke:black"></rect>
      <line x1="0" y1="-6" x2="40" y2="-6" stroke="black" stroke-width="1"></line>
      <text x="20" y="10" style="text-anchor:middle" font-family="Arial, Helvetica, sans-serif" font-weight="bold" font-size="12">kWh</text>
    </g>
    <g id="diepvriezer">
      <rect x="0" y="-20" width="40" height="40" fill="none" style="stroke:black"></rect>
      <use xlink:href="#ster" xmlns:xlink="http://www.w3.org/1999/xlink" x="10" y="0"></use>
      <use xlink:href="#ster" xmlns:xlink="http://www.w3.org/1999/xlink" x="20" y="0"></use>
      <use xlink:href="#ster" xmlns:xlink="http://www.w3.org/1999/xlink" x="30" y="0"></use>
    </g>
    <g id="zonnepaneel">
      <rect x="0" y="-12" width="80" height="30" fill="none" style="stroke:black"></rect>
      <line x1="3" y1="3" x2="77" y2="3" stroke="black"></line>
      <line x1="20" y1="-9" x2="20" y2="15" stroke="black"></line>
      <line x1="40" y1="-9" x2="40" y2="15" stroke="black"></line>
      <line x1="60" y1="-9" x2="60" y2="15" stroke="black"></line>
    </g>
    <g id="drukknop_klein">
      <circle cx="8" cy="0" r="7" style="stroke:black;fill:none"></circle>
      <circle cx="8" cy="0" r="4" style="stroke:black;fill:none"></circle>
    </g>
    <g id="draadloos_klein">
      <path d="M 10 -7 A 10 10 0 0 1 10 7" stroke="black" fill="none"></path> 
      <path d="M 7 -5 A 8 8 0 0 1 7 5" stroke="black" fill="none"></path> 
      <path d="M 4 -3 A 6 6 0 0 1 4 3" stroke="black" fill="none"></path> 
    </g>
    <g id="detectie_klein">
      <path d="M 10 -7 A 10 10 0 0 1 10 7" stroke="black" fill="none"></path> 
      <path d="M 5 -7 A 10 10 0 0 1 5 7" stroke="black" fill="none"></path> 
    </g>
    <g id="drukknop">
      <circle cx="12" cy="0" r="12" style="stroke:black;fill:none"></circle>
      <circle cx="12" cy="0" r="7" style="stroke:black;fill:none"></circle>
    </g>
    <g id="teleruptor">
      <rect x="0" y="-13" width="40" height="26" fill="none" style="stroke:black"></rect>
      <line x1="8" y1="6" x2="16" y2="6" stroke="black"></line>
      <line x1="24" y1="6" x2="32" y2="6" stroke="black"></line>
      <line x1="16" y1="-6" x2="16" y2="6" stroke="black"></line>
      <line x1="24" y1="-6" x2="24" y2="6" stroke="black"></line>
    </g>
    <g id="dimmer">
      <rect x="0" y="-13" width="40" height="26" fill="none" style="stroke:black"></rect>
      <line x1="10" y1="5" x2="30" y2="6" stroke="black"></line>
      <line x1="10" y1="5" x2="10" y2="-5" stroke="black"></line>
      <line x1="10" y1="-5" x2="30" y2="5" stroke="black"></line>
    </g>
    <g id="relais">
      <rect x="0" y="-13" width="40" height="26" fill="none" style="stroke:black"></rect>
      <line x1="10" y1="-13" x2="30" y2="13" stroke="black"></line>
    </g>
    <g id="minuterie">
      <rect x="0" y="-13" width="40" height="26" fill="none" style="stroke:black"></rect>
      <text x="20" y="6" style="text-anchor:middle" font-family="Arial, Helvetica, sans-serif" font-size="16">t</text>
    </g>
    <g id="thermostaat">
      <rect x="0" y="-13" width="40" height="26" fill="none" style="stroke:black"></rect>
      <circle cx="20" cy="0" r="8" style="stroke:black;fill:none"></circle>
      <line x1="12" y1="0" x2="28" y2="0" stroke="black"></line>
    </g>
    <g id="tijdschakelaar">
      <rect x="0" y="-13" width="40" height="26" fill="none" style="stroke:black"></rect>
      <circle cx="11" cy="0" r="8" style="stroke:black;fill:none"></circle>
      <line x1="10" y1="0" x2="17" y2="0" stroke="black"></line>
      <line x1="11" y1="-6" x2="11" y2="1" stroke="black"></line>
      <line x1="21" y1="0" x2="25" y2="0" stroke="black"></line>
      <line x1="25" y1="0" x2="31" y2="-5" stroke="black"></line>
      <line x1="31" y1="0" x2="36" y2="0" stroke="black"></line>
    </g>
    <g id="tijdschakelaar_klein">
      <circle cx="8" cy="0" r="7" style="stroke:black;fill:none"></circle>
      <line x1="7" y1="0" x2="13" y2="0" stroke="black"></line>
      <line x1="8" y1="-5" x2="8" y2="1" stroke="black"></line>
    </g>
    <g id="droogkast">
      <rect x="0" y="-20" width="40" height="40" fill="none" style="stroke:black"></rect>
      <circle cx="15" cy="-7.5" r="5" style="stroke:black;fill:none"></circle>
      <circle cx="25" cy="-7.5" r="5" style="stroke:black;fill:none"></circle>
      <circle cx="20" cy="7.5" r="3" style="stroke:black;fill:black"></circle>
    </g>
    <g id="omvormer">
      <rect x="0" y="-15" width="60" height="30" fill="none" style="stroke:black"></rect>
      <line x1="35" y1="-12" x2="25" y2="12" stroke="black"></line>
      <text x="15" y="-1" style="text-anchor:middle" font-family="Arial, Helvetica, sans-serif" font-size="12">AC</text>
      <text x="45" y="10" style="text-anchor:middle" font-family="Arial, Helvetica, sans-serif" font-size="12">DC</text>
    </g>
    <g id="overspanningsbeveiliging">
      <rect x="0" y="-15" width="15" height="30" fill="none" style="stroke:black"></rect>
      <line x1="7.5" y1="-18" x2="7.5" y2="-5" stroke="black"></line>
      <line x1="7.5" y1="-5" x2="4.5" y2="-9" stroke="black"></line>
      <line x1="7.5" y1="-5" x2="10.5" y2="-9" stroke="black"></line>
      <line x1="7.5" y1="18" x2="7.5" y2="5" stroke="black"></line>
      <line x1="7.5" y1="5" x2="4.5" y2="9" stroke="black"></line>
      <line x1="7.5" y1="5" x2="10.5" y2="9" stroke="black"></line>
    </g>
    <g id="koelkast">
      <rect x="0" y="-20" width="40" height="40" fill="none" style="stroke:black"></rect>
      <use xlink:href="#ster" xmlns:xlink="http://www.w3.org/1999/xlink" x="20" y="0"></use>"
    </g>
    <g id="kookfornuis">
      <rect x="0" y="-20" width="40" height="40" fill="none" style="stroke:black"></rect>
      <circle cx="10" cy="10" r="3" style="stroke:black;fill:black"></circle>
      <circle cx="30" cy="10" r="3" style="stroke:black;fill:black"></circle>
      <circle cx="30" cy="-10" r="3" style="stroke:black;fill:black"></circle>
    </g>
    <g id="microgolf">
      <rect x="0" y="-20" width="40" height="40" fill="none" style="stroke:black"></rect>
      <use xlink:href="#sinus" xmlns:xlink="http://www.w3.org/1999/xlink" x="10" y="-10"></use>"
      <use xlink:href="#sinus" xmlns:xlink="http://www.w3.org/1999/xlink" x="10" y="0"></use>"
      <use xlink:href="#sinus" xmlns:xlink="http://www.w3.org/1999/xlink" x="10" y="10"></use>"
    </g>
    <g id="oven">
      <rect x="0" y="-20" width="40" height="40" fill="none" style="stroke:black"></rect>
      <line x1="0" y1="-5" x2="40" y2="-5" stroke="black"></line>
      <circle cx="20" cy="7.5" r="3" style="stroke:black;fill:black"></circle>
    </g>
    <g id="usblader">
      <rect x="0" y="-15" width="60" height="30" fill="none" style="stroke:black"></rect>
      <circle cx="12" cy="-5" r="5" style="stroke:black;fill:none"></circle>
      <circle cx="19" cy="-5" r="5" style="stroke:black;fill:none"></circle>
      <text x="15" y="8" style="text-anchor:middle" font-family="Arial, Helvetica, sans-serif" font-size="8">AC/DC</text>
      <text x="42" y="4" style="text-anchor:middle" font-family="Arial, Helvetica, sans-serif" font-size="11">USB</text>
    </g>
    <g id="vaatwasmachine">
      <rect x="0" y="-20" width="40" height="40" fill="none" style="stroke:black"></rect>
      <line x1="0" y1="-20" x2="40" y2="20" style="stroke:black;fill:none"></line>
      <line x1="40" y1="-20" x2="0" y2="20" style="stroke:black;fill:none"></line>
      <circle cx="20" cy="0" r="8" style="stroke:black;fill:white"></circle>
    </g>
    <g id="ventilator">
      <rect x="0" y="-15" width="30" height="30" fill="none" style="stroke:black"></rect>
      <circle cx="10" cy="0" r="5" style="stroke:black;fill:none"></circle>
      <circle cx="20" cy="0" r="5" style="stroke:black;fill:none"></circle>
    </g>
    <g id="transformator">
      <circle cx="8" cy="0" r="8" style="stroke:black;fill:none"></circle>
      <circle cx="20" cy="0" r="8" style="stroke:black;fill:none"></circle>
    </g>
    <g id="verwarmingstoestel">
      <rect x="0" y="-15" width="50" height="30" fill="url(#VerticalStripe)" style="stroke:black"></rect>
    </g>
    <g id="verwarmingstoestel_accu">
      <rect x="0" y="-15" width="50" height="30" fill="none" style="stroke:black"></rect>
      <rect x="5" y="-10" width="40" height="20" fill="url(#VerticalStripe)" style="stroke:black"></rect>
    </g>
    <g id="verwarmingstoestel_accu_ventilator">
      <rect x="0" y="-15" width="70" height="30" fill="none" style="stroke:black"></rect>
      <rect x="5" y="-10" width="35" height="20" fill="url(#VerticalStripe)" style="stroke:black"></rect>
      <circle cx="50" cy="0" r="5" style="stroke:black;fill:none"></circle>
      <circle cx="60" cy="0" r="5" style="stroke:black;fill:none"></circle>
    </g>
    <g id="verbruiker">
      <rect x="0" y="-20" width="40" height="40" fill="none" style="stroke:black"></rect>
    </g>
    <g id="wasmachine">
      <rect x="0" y="-20" width="40" height="40" fill="none" style="stroke:black"></rect>
      <circle cx="20" cy="0" r="3" style="stroke:black;fill:black"></circle>
      <circle cx="20" cy="0" r="15" style="stroke:black;fill:none"></circle>
    </g>
    <g transform="rotate(-20)" id="zekering_automatisch">
      <line x1="0" y1="-30" x2="0" y2="0" stroke="black"></line>
      <rect x="-4" y="-30" width="4" height="10" style="fill:black"></rect>
    </g>
    <g id="zekering_smelt">
      <rect x="-4" y="-30" width="8" height="30" style="stroke:black;fill:none"></rect>
      <line x1="0" y1="-30" x2="0" y2="0" stroke="black"></line>
    </g>
    <g id="overspanningsbeveiliging_inline">   -&gt; shift x -7.5  y -15
      <rect x="-7.5" y="-30" width="15" height="30" fill="none" style="stroke:black"></rect>
      <line x1="0" y1="-30" x2="0" y2="-20" stroke="black"></line>
      <line x1="0" y1="-20" x2="-3" y2="-24" stroke="black"></line>
      <line x1="0" y1="-20" x2="3" y2="-24" stroke="black"></line>
      <line x1="0" y1="0" x2="0" y2="-10" stroke="black"></line>
      <line x1="0" y1="-10" x2="-3" y2="-6" stroke="black"></line>
      <line x1="0" y1="-10" x2="3" y2="-6" stroke="black"></line>
    </g>
    <g transform="rotate(-20)" id="zekering_empty">
      <line x1="0" y1="-30" x2="0" y2="0" stroke="black"></line>
    </g>
    <g id="arrow">
      <line x1="0" y1="0" x2="8" y2="0" stroke="black"></line>
      <line x1="8" y1="0" x2="5" y2="-1" stroke="black"></line>
      <line x1="8" y1="0" x2="5" y2="1" stroke="black"></line>
    </g>
    <g id="gas_ventilator">
      <polygon points="-6,5.2 0,-5.2 6,5.2" fill="black" stroke="black"></polygon>
    </g>
    <g id="gas_atmosferisch">
      <polygon points="-6,5.2 0,-5.2 6,5.2" fill="white" stroke="black"></polygon>
    </g>
    <g id="bliksem">
      <line x1="0" y1="-5.2" x2="-3" y2="0" stroke="black"></line>
      <line x1="-3" y1="0" x2="3" y2="0" stroke="black"></line>
      <line x1="3" y1="0" x2="0" y2="5.2" stroke="black"></line>
      <line x1="0" y1="5.2" x2="0" y2="2.2" stroke="black"></line>
      <line x1="0" y1="5.2" x2="2.6" y2="3.7" stroke="black"></line>
    </g>
    <g id="moving_man" transform="matrix(0.0152987,0,0,0.01530866,0,0)">
       <path d="M 710.7,10.1 C 904.8,5.2 908.6,261.4 730.9,278.4 637.5,287.3 566.3,181.5 603.8,90.8 623.4,43.4 668.7,12.9 711.4,10.1 c 1.1,-0.1 2.8,26.1 1.7,26.2 -31.4,2 -74.8,32.1 -89.1,74.7 -26.8,79.9 47,156.6 125.1,139.2 123.9,-27.6 114.1,-218.5 -36.3,-214 -0.7,0 -3.2,-26 -2.1,-26.1 z" id="path4" stroke="black" stroke-width="10"></path>
       <path d="m 545.3,225.9 c -67.8,-5 -133.2,0 -199.7,0 -20.7,13.6 -115,100.7 -121.1,121.1 -5.7,19.1 6.2,31.9 12.1,40.4 60.1,18.3 96.7,-60.4 133.2,-88.8 29.6,0 59.2,0 88.8,0 -59.2,78.9 -190.7,169.9 -58.5,264.3 -27.6,31.6 -55.1,63.2 -82.7,94.8 -46.9,-14.7 -165.6,-41.3 -199.7,-18.2 -7,21 -4.8,32.1 6.1,48.4 34.1,10.3 205.5,53.2 232,36.3 34.3,-37.7 68.6,-75.3 102.9,-113 32.3,27.6 64.6,55.2 96.9,82.7 -1,62.6 -14.6,249.9 24.2,266.3 10.2,3 19.1,0.5 28.2,-2 5.4,-7.4 10.8,-14.8 16.1,-22.2 6.9,-27 0.3,-272.6 -6.1,-282.5 -37.7,-32.9 -75.3,-65.9 -113,-98.9 1.3,-1.3 2.7,-2.7 4,-4 45.7,-48.4 91.5,-96.9 137.2,-145.3 20.2,19.5 40.4,39 60.5,58.5 16.7,35.8 152.2,25.4 179.6,6.1 2,-8.1 4,-16.1 6.1,-24.2 -16,-40.1 -71.7,-31.8 -127.1,-30.3 C 741.8,384.3 590.6,253 545.5,225.7 c -1.7,-1 14.9,-23.3 15.4,-22.4 -2.2,-3.5 126,97.7 134.4,107.4 9.4,9.1 55.2,51.5 82.1,78.4 68.5,-2 122,-6.5 137.2,46.4 4.9,17.1 1.9,37.1 -8.1,50.4 -18.8,25.3 -156,39.1 -197.7,18.2 -20.2,-20.2 -40.4,-40.4 -60.5,-60.5 -18.8,18.2 -37.7,36.3 -56.5,54.5 -16.8,18.2 -33.6,36.3 -50.4,54.5 32.9,28.9 65.9,57.8 98.9,86.8 11.2,17.9 18.9,272.3 8.1,306.7 -4.8,15.2 -19.9,32.9 -34.3,38.3 C 498.3,1028.1 527.8,798.3 529.4,706 505.9,686.5 482.3,667 458.8,647.5 427.9,676.7 402,732.8 362,750.4 333.5,762.9 140.3,728.4 113.8,712.1 100.1,703.6 89.3,686 85.6,667.7 59.7,543.2 281.5,646 321.3,617.4 334.7,601.3 348.2,585.1 361.7,569 266.4,454.2 335.5,414.9 402.1,326.9 c 0,-0.7 0,-1.3 0,-2 -8.1,0 -16.1,0 -24.2,0 -26.3,36.3 -124.9,147 -173.5,64.6 -35.9,-60.8 103.6,-172.2 141.1,-189.8 56.7,-3.8 167.5,-11 215.9,4 0.8,0.7 -14.9,22.6 -16.1,22.2 z" id="path6" stroke="black" stroke-width="10"></path></g>
    </defs>
<use xlink:href="#stopcontact" xmlns:xlink="http://www.w3.org/1999/xlink" x="105" y="25"></use>
<use xlink:href="#stopcontact_aarding" xmlns:xlink="http://www.w3.org/1999/xlink" x="105" y="25"></use>
<use xlink:href="#stopcontact_kinderveilig" xmlns:xlink="http://www.w3.org/1999/xlink" x="105" y="25"></use>

<line x1="105" x2="105" y1="25" y2="50" stroke="black"></line>
<text x="114" y="20" style="text-anchor:middle" font-family="Arial, Helvetica, sans-serif" font-size="10">5</text>

<use xlink:href="#stopcontact" xmlns:xlink="http://www.w3.org/1999/xlink" x="105" y="75"></use>
<use xlink:href="#stopcontact_aarding" xmlns:xlink="http://www.w3.org/1999/xlink" x="105" y="75"></use>
<use xlink:href="#stopcontact_kinderveilig" xmlns:xlink="http://www.w3.org/1999/xlink" x="105" y="75"></use>

<line x1="105" x2="105" y1="50" y2="100" stroke="black"></line>
<text x="114" y="70" style="text-anchor:middle" font-family="Arial, Helvetica, sans-serif" font-size="10">4</text>

<use xlink:href="#stopcontact" xmlns:xlink="http://www.w3.org/1999/xlink" x="105" y="125"></use>
<use xlink:href="#stopcontact_aarding" xmlns:xlink="http://www.w3.org/1999/xlink" x="105" y="125"></use>
<use xlink:href="#stopcontact_kinderveilig" xmlns:xlink="http://www.w3.org/1999/xlink" x="105" y="125"></use>

<line x1="105" x2="105" y1="100" y2="150" stroke="black"></line>
<text x="114" y="120" style="text-anchor:middle" font-family="Arial, Helvetica, sans-serif" font-size="10">3</text>

<use xlink:href="#stopcontact" xmlns:xlink="http://www.w3.org/1999/xlink" x="105" y="175"></use>
<use xlink:href="#stopcontact_aarding" xmlns:xlink="http://www.w3.org/1999/xlink" x="105" y="175"></use>
<use xlink:href="#stopcontact_kinderveilig" xmlns:xlink="http://www.w3.org/1999/xlink" x="105" y="175"></use>

<text style="text-anchor:end" font-family="Arial, Helvetica, sans-serif" font-size="10" x="191" y="178">Waterkoker</text>


<line x1="105" x2="105" y1="150" y2="200" stroke="black"></line>
<text x="114" y="170" style="text-anchor:middle" font-family="Arial, Helvetica, sans-serif" font-size="10">2</text>

<use xlink:href="#stopcontact" xmlns:xlink="http://www.w3.org/1999/xlink" x="105" y="225"></use>
<use xlink:href="#stopcontact_aarding" xmlns:xlink="http://www.w3.org/1999/xlink" x="105" y="225"></use>
<use xlink:href="#stopcontact_kinderveilig" xmlns:xlink="http://www.w3.org/1999/xlink" x="105" y="225"></use>

<line x1="105" x2="105" y1="200" y2="250" stroke="black"></line>
<text x="114" y="220" style="text-anchor:middle" font-family="Arial, Helvetica, sans-serif" font-size="10">1</text>

<line x1="105" x2="105" y1="250" y2="350" stroke="black"></line>
<text x="120" y="330" transform="rotate(-90 120,330)" style="text-anchor:start" font-family="Arial, Helvetica, sans-serif" font-size="10">XVB CCa 3G2,5</text>
<circle cx="95" cy="290" r="4" style="stroke:black;fill:none"></circle>
<line x1="90" x2="90" y1="260" y2="280" style="stroke:black"></line>
<line x1="90" x2="100" y1="260" y2="260" style="stroke:black"></line>
<line x1="90" x2="100" y1="270" y2="270" style="stroke:black"></line>
<line x1="90" x2="100" y1="280" y2="280" style="stroke:black"></line>
<line x1="90" x2="90" y1="315" y2="335" style="stroke:black"></line>
<line x1="90" x2="100" y1="335" y2="335" style="stroke:black"></line>
<line x1="90" x2="100" y1="315" y2="315" style="stroke:black"></line>
<line x1="90" x2="100" y1="325" y2="325" style="stroke:black"></line>
<use xlink:href="#zekering_automatisch" xmlns:xlink="http://www.w3.org/1999/xlink" x="105" y="380"></use>
<text x="120" y="370" transform="rotate(-90 120,370)" style="text-anchor:middle" font-family="Arial, Helvetica, sans-serif" font-size="10">2P - 20A</text>
<text x="131" y="370" transform="rotate(-90 131,370)" style="text-anchor:middle" font-family="Arial, Helvetica, sans-serif" font-size="10">Curve C</text>
<text x="142" y="370" transform="rotate(-90 142,370)" style="text-anchor:middle" font-family="Arial, Helvetica, sans-serif" font-size="10">3kA</text>
<text x="79" y="340" transform="rotate(-90 79,340)" style="text-anchor:start" font-family="Arial, Helvetica, sans-serif" font-weight="bold" font-size="12">Keuken</text>
<text x="99" y="383" style="text-anchor:end" font-family="Arial, Helvetica, sans-serif" font-weight="bold" font-size="12">A</text>
<line x1="105" x2="105" y1="380" y2="395" stroke="black"></line>

<line x1="251" x2="281" y1="125" y2="125" stroke="black"></line>
<use xlink:href="#schakelaar_enkel" xmlns:xlink="http://www.w3.org/1999/xlink" x="281" y="125"></use>
<line x1="286" x2="316" y1="125" y2="125" stroke="black"></line>
<use xlink:href="#lamp" xmlns:xlink="http://www.w3.org/1999/xlink" x="316" y="125"></use>

<line x1="251" x2="251" y1="125" y2="150" stroke="black"></line>
<text x="260" y="120" style="text-anchor:middle" font-family="Arial, Helvetica, sans-serif" font-size="10">3</text>

<line x1="251" x2="281" y1="175" y2="175" stroke="black"></line>
<use xlink:href="#schakelaar_wissel_enkel" xmlns:xlink="http://www.w3.org/1999/xlink" x="281" y="175"></use>
<line x1="286" x2="316" y1="175" y2="175" stroke="black"></line>
<use xlink:href="#schakelaar_wissel_enkel" xmlns:xlink="http://www.w3.org/1999/xlink" x="316" y="175"></use>
<line x1="321" x2="351" y1="175" y2="175" stroke="black"></line>
<use xlink:href="#lamp" xmlns:xlink="http://www.w3.org/1999/xlink" x="351" y="175"></use>

<line x1="251" x2="251" y1="150" y2="200" stroke="black"></line>
<text x="260" y="170" style="text-anchor:middle" font-family="Arial, Helvetica, sans-serif" font-size="10">2</text>

<line x1="251" x2="281" y1="225" y2="225" stroke="black"></line>
<use xlink:href="#schakelaar_dubbel" xmlns:xlink="http://www.w3.org/1999/xlink" x="281" y="225"></use>
<line x1="286" x2="316" y1="225" y2="225" stroke="black"></line>
<use xlink:href="#lamp" xmlns:xlink="http://www.w3.org/1999/xlink" x="316" y="225"></use>

<line x1="251" x2="251" y1="200" y2="250" stroke="black"></line>
<text x="260" y="220" style="text-anchor:middle" font-family="Arial, Helvetica, sans-serif" font-size="10">1</text>

<line x1="251" x2="251" y1="250" y2="350" stroke="black"></line>
<text x="266" y="330" transform="rotate(-90 266,330)" style="text-anchor:start" font-family="Arial, Helvetica, sans-serif" font-size="10">XVB CCa 3G1,5</text>
<circle cx="241" cy="290" r="4" style="stroke:black;fill:none"></circle>
<line x1="236" x2="236" y1="260" y2="280" style="stroke:black"></line>
<line x1="236" x2="246" y1="260" y2="260" style="stroke:black"></line>
<line x1="236" x2="246" y1="270" y2="270" style="stroke:black"></line>
<line x1="236" x2="246" y1="280" y2="280" style="stroke:black"></line>
<line x1="236" x2="236" y1="315" y2="335" style="stroke:black"></line>
<line x1="236" x2="246" y1="335" y2="335" style="stroke:black"></line>
<line x1="236" x2="246" y1="315" y2="315" style="stroke:black"></line>
<line x1="236" x2="246" y1="325" y2="325" style="stroke:black"></line>
<use xlink:href="#zekering_automatisch" xmlns:xlink="http://www.w3.org/1999/xlink" x="251" y="380"></use>
<text x="266" y="370" transform="rotate(-90 266,370)" style="text-anchor:middle" font-family="Arial, Helvetica, sans-serif" font-size="10">2P - 16A</text>
<text x="277" y="370" transform="rotate(-90 277,370)" style="text-anchor:middle" font-family="Arial, Helvetica, sans-serif" font-size="10">Curve C</text>
<text x="288" y="370" transform="rotate(-90 288,370)" style="text-anchor:middle" font-family="Arial, Helvetica, sans-serif" font-size="10">3kA</text>
<text x="225" y="340" transform="rotate(-90 225,340)" style="text-anchor:start" font-family="Arial, Helvetica, sans-serif" font-weight="bold" font-size="12">Verlichting</text>
<text x="245" y="383" style="text-anchor:end" font-family="Arial, Helvetica, sans-serif" font-weight="bold" font-size="12">B</text>
<line x1="251" x2="251" y1="380" y2="395" stroke="black"></line>

<line x1="415" x2="445" y1="116" y2="116" stroke="black"></line>
<use xlink:href="#schakelaar_dubbel" xmlns:xlink="http://www.w3.org/1999/xlink" x="445" y="116"></use>
<line x1="450" x2="480" y1="116" y2="116" stroke="black"></line>
<use xlink:href="#lamp" xmlns:xlink="http://www.w3.org/1999/xlink" x="480" y="116"></use>
<text x="462" y="145" style="text-anchor:middle" font-family="Arial, Helvetica, sans-serif" font-size="10" font-style="italic">Spiegel</text>

<line x1="415" x2="415" y1="116" y2="150" stroke="black"></line>
<text x="424" y="111" style="text-anchor:middle" font-family="Arial, Helvetica, sans-serif" font-size="10">3</text>

<use xlink:href="#stopcontact" xmlns:xlink="http://www.w3.org/1999/xlink" x="415" y="175"></use>
<use xlink:href="#stopcontact_aarding" xmlns:xlink="http://www.w3.org/1999/xlink" x="415" y="175"></use>
<use xlink:href="#stopcontact_kinderveilig" xmlns:xlink="http://www.w3.org/1999/xlink" x="415" y="175"></use>

<line x1="415" x2="415" y1="150" y2="200" stroke="black"></line>
<text x="424" y="170" style="text-anchor:middle" font-family="Arial, Helvetica, sans-serif" font-size="10">2</text>

<use xlink:href="#stopcontact" xmlns:xlink="http://www.w3.org/1999/xlink" x="415" y="225"></use>
<use xlink:href="#stopcontact_aarding" xmlns:xlink="http://www.w3.org/1999/xlink" x="415" y="225"></use>
<use xlink:href="#stopcontact_kinderveilig" xmlns:xlink="http://www.w3.org/1999/xlink" x="415" y="225"></use>

<line x1="415" x2="415" y1="200" y2="250" stroke="black"></line>
<text x="424" y="220" style="text-anchor:middle" font-family="Arial, Helvetica, sans-serif" font-size="10">1</text>

<line x1="415" x2="415" y1="250" y2="350" stroke="black"></line>
<text x="430" y="330" transform="rotate(-90 430,330)" style="text-anchor:start" font-family="Arial, Helvetica, sans-serif" font-size="10">XVB CCa 3G2,5</text>
<circle cx="405" cy="290" r="4" style="stroke:black;fill:none"></circle>
<line x1="400" x2="400" y1="260" y2="280" style="stroke:black"></line>
<line x1="400" x2="410" y1="260" y2="260" style="stroke:black"></line>
<line x1="400" x2="410" y1="270" y2="270" style="stroke:black"></line>
<line x1="400" x2="410" y1="280" y2="280" style="stroke:black"></line>
<line x1="400" x2="400" y1="315" y2="335" style="stroke:black"></line>
<line x1="400" x2="410" y1="335" y2="335" style="stroke:black"></line>
<line x1="400" x2="410" y1="315" y2="315" style="stroke:black"></line>
<line x1="400" x2="410" y1="325" y2="325" style="stroke:black"></line>
<use xlink:href="#zekering_automatisch" xmlns:xlink="http://www.w3.org/1999/xlink" x="415" y="380"></use>
<text x="430" y="370" transform="rotate(-90 430,370)" style="text-anchor:middle" font-family="Arial, Helvetica, sans-serif" font-size="10">2P - 16A</text>
<text x="441" y="370" transform="rotate(-90 441,370)" style="text-anchor:middle" font-family="Arial, Helvetica, sans-serif" font-size="10">Curve C</text>
<text x="452" y="370" transform="rotate(-90 452,370)" style="text-anchor:middle" font-family="Arial, Helvetica, sans-serif" font-size="10">3kA</text>
<text x="389" y="340" transform="rotate(-90 389,340)" style="text-anchor:start" font-family="Arial, Helvetica, sans-serif" font-weight="bold" font-size="12">Badkamer</text>
<text x="409" y="383" style="text-anchor:end" font-family="Arial, Helvetica, sans-serif" font-weight="bold" font-size="12">C</text>
<line x1="415" x2="415" y1="380" y2="395" stroke="black"></line>

<line x1="54" x2="493" y1="395" y2="395" stroke="black" stroke-width="3"></line>

<line x1="105" x2="105" y1="396" y2="416" stroke="black"></line>
<use xlink:href="#zekering_automatisch" xmlns:xlink="http://www.w3.org/1999/xlink" x="105" y="446"></use>
<text x="120" y="436" transform="rotate(-90 120,436)" style="text-anchor:middle" font-family="Arial, Helvetica, sans-serif" font-size="10">Δ30mA</text>
<text x="131" y="436" transform="rotate(-90 131,436)" style="text-anchor:middle" font-family="Arial, Helvetica, sans-serif" font-size="10">2P - 40A</text>
<text x="142" y="436" transform="rotate(-90 142,436)" style="text-anchor:middle" font-family="Arial, Helvetica, sans-serif" font-size="10">Type A</text>
<text x="153" y="436" transform="rotate(-90 153,436)" style="text-anchor:middle" font-family="Arial, Helvetica, sans-serif" font-size="10">3kA</text>
<text x="99" y="406" transform="rotate(-90 99,406)" style="text-anchor:start" font-family="Arial, Helvetica, sans-serif" font-weight="bold" font-size="12"></text>
<text x="99" y="449" style="text-anchor:end" font-family="Arial, Helvetica, sans-serif" font-weight="bold" font-size="12">Diff</text>
<line x1="105" x2="105" y1="446" y2="461" stroke="black"></line>

<line x1="54" x2="503" y1="461" y2="461" stroke="black" stroke-width="3"></line>
<line x1="90" y1="461" x2="90" y2="471" stroke="black"></line>
<line x1="90" y1="476" x2="90" y2="486" stroke="black"></line>
<line x1="90" y1="491" x2="90" y2="501" stroke="black"></line>
<line x1="85" y1="471" x2="95" y2="471" stroke="black"></line>
<line x1="85" y1="476" x2="95" y2="476" stroke="black"></line>
<line x1="85" y1="486" x2="95" y2="486" stroke="black"></line>
<line x1="85" y1="491" x2="95" y2="491" stroke="black"></line>
<line x1="80" y1="501" x2="100" y2="501" stroke="black"></line>
<line x1="82.5" y1="504" x2="97.5" y2="504" stroke="black"></line>
<line x1="85" y1="507" x2="95" y2="507" stroke="black"></line>

<line x1="150" x2="150" y1="462" y2="482" stroke="black"></line>
<use xlink:href="#zekering_automatisch" xmlns:xlink="http://www.w3.org/1999/xlink" x="150" y="512"></use>
<text x="165" y="502" transform="rotate(-90 165,502)" style="text-anchor:middle" font-family="Arial, Helvetica, sans-serif" font-size="10">Δ300mA</text>
<text x="176" y="502" transform="rotate(-90 176,502)" style="text-anchor:middle" font-family="Arial, Helvetica, sans-serif" font-size="10">2P - 40A</text>
<text x="187" y="502" transform="rotate(-90 187,502)" style="text-anchor:middle" font-family="Arial, Helvetica, sans-serif" font-size="10">Type A</text>
<text x="198" y="502" transform="rotate(-90 198,502)" style="text-anchor:middle" font-family="Arial, Helvetica, sans-serif" font-size="10">3kA</text>
<line x1="1" y1="537" x2="21" y2="537" stroke="black"></line>
<line x1="61" y1="537" x2="150" y2="537" stroke="black"></line>
<line x1="150" y1="512" x2="150" y2="537" stroke="black"></line>
<use xlink:href="#elektriciteitsmeter" xmlns:xlink="http://www.w3.org/1999/xlink" x="21" y="537"></use>
<text x="85" y="552" style="text-anchor:left" font-family="Arial, Helvetica, sans-serif" font-size="10">2x16</text>
<text x="144" y="527" style="text-anchor:end" font-family="Arial, Helvetica, sans-serif" font-weight="bold" font-size="12"></text>

</svg></svg>